<svg xmlns="http://www.w3.org/2000/svg" viewBox="0 0 1920 1080" fill="none">
  <defs>
    <linearGradient id="sky" x1="0" y1="0" x2="0" y2="1">
      <stop offset="0%" stop-color="#18354F"/>
      <stop offset="100%" stop-color="#255077"/>
    </linearGradient>
  </defs>
  <rect width="1920" height="1080" fill="url(#sky)"/>
  <!-- Abstract geometric shapes suggesting office/wellness -->
  <rect x="100" y="600" width="300" height="400" rx="0" fill="#316A9E" opacity="0.3"/>
  <rect x="450" y="500" width="250" height="500" rx="0" fill="#316A9E" opacity="0.2"/>
  <rect x="1300" y="550" width="280" height="450" rx="0" fill="#316A9E" opacity="0.25"/>
  <rect x="1620" y="650" width="200" height="350" rx="0" fill="#316A9E" opacity="0.2"/>
  <!-- People silhouettes - group of 5 -->
  <!-- Person 1 -->
  <circle cx="650" cy="520" r="40" fill="#9ebfdf" opacity="0.8"/>
  <rect x="620" y="560" width="60" height="120" rx="0" fill="#9ebfdf" opacity="0.8"/>
  <!-- Person 2 -->
  <circle cx="780" cy="500" r="45" fill="#c5d9ed" opacity="0.8"/>
  <rect x="745" y="545" width="70" height="130" rx="0" fill="#c5d9ed" opacity="0.8"/>
  <!-- Person 3 - center, taller -->
  <circle cx="920" cy="470" r="50" fill="#FFB31A" opacity="0.7"/>
  <rect x="880" y="520" width="80" height="150" rx="0" fill="#FFB31A" opacity="0.5"/>
  <!-- Person 4 -->
  <circle cx="1060" cy="500" r="45" fill="#c5d9ed" opacity="0.8"/>
  <rect x="1025" y="545" width="70" height="130" rx="0" fill="#c5d9ed" opacity="0.8"/>
  <!-- Person 5 -->
  <circle cx="1190" cy="520" r="40" fill="#9ebfdf" opacity="0.8"/>
  <rect x="1160" y="560" width="60" height="120" rx="0" fill="#9ebfdf" opacity="0.8"/>
  <!-- Abstract wellness elements -->
  <rect x="200" y="200" width="120" height="8" fill="#FFB31A" opacity="0.4"/>
  <rect x="200" y="220" width="80" height="8" fill="#FFB31A" opacity="0.3"/>
  <rect x="200" y="240" width="100" height="8" fill="#FFB31A" opacity="0.2"/>
  <rect x="1600" y="180" width="120" height="8" fill="#9ebfdf" opacity="0.3"/>
  <rect x="1600" y="200" width="80" height="8" fill="#9ebfdf" opacity="0.2"/>
  <!-- Heart symbol -->
  <path d="M960 350 C940 320 900 320 900 350 C900 380 960 420 960 420 C960 420 1020 380 1020 350 C1020 320 980 320 960 350Z" fill="#FFB31A" opacity="0.3"/>
  <!-- Dots pattern -->
  <circle cx="150" cy="900" r="4" fill="#9ebfdf" opacity="0.3"/>
  <circle cx="170" cy="900" r="4" fill="#9ebfdf" opacity="0.3"/>
  <circle cx="190" cy="900" r="4" fill="#9ebfdf" opacity="0.3"/>
  <circle cx="150" cy="920" r="4" fill="#9ebfdf" opacity="0.3"/>
  <circle cx="170" cy="920" r="4" fill="#9ebfdf" opacity="0.3"/>
  <circle cx="190" cy="920" r="4" fill="#9ebfdf" opacity="0.3"/>
  <circle cx="1730" cy="900" r="4" fill="#9ebfdf" opacity="0.3"/>
  <circle cx="1750" cy="900" r="4" fill="#9ebfdf" opacity="0.3"/>
  <circle cx="1770" cy="900" r="4" fill="#9ebfdf" opacity="0.3"/>
  <circle cx="1730" cy="920" r="4" fill="#9ebfdf" opacity="0.3"/>
  <circle cx="1750" cy="920" r="4" fill="#9ebfdf" opacity="0.3"/>
  <circle cx="1770" cy="920" r="4" fill="#9ebfdf" opacity="0.3"/>
</svg>