<svg xmlns="http://www.w3.org/2000/svg" viewBox="0 0 640 360" fill="none">
  <defs>
    <linearGradient id="sunrise" x1="0" y1="1" x2="0" y2="0">
      <stop offset="0%" stop-color="#255077"/>
      <stop offset="60%" stop-color="#316A9E" stop-opacity="0.4"/>
      <stop offset="100%" stop-color="#FFD06B" stop-opacity="0.3"/>
    </linearGradient>
  </defs>
  <rect width="640" height="360" fill="url(#sunrise)"/>
  <!-- Sun -->
  <circle cx="320" cy="200" r="60" fill="#FFB31A" opacity="0.4"/>
  <circle cx="320" cy="200" r="40" fill="#FFB31A" opacity="0.3"/>
  <!-- Ground -->
  <rect x="0" y="280" width="640" height="80" fill="#18354F" opacity="0.4"/>
  <!-- Family silhouettes -->
  <!-- Parent 1 (left) -->
  <circle cx="250" cy="200" r="18" fill="#18354F" opacity="0.7"/>
  <rect x="238" y="218" width="24" height="62" fill="#18354F" opacity="0.7"/>
  <!-- Child (center) -->
  <circle cx="300" cy="220" r="12" fill="#18354F" opacity="0.7"/>
  <rect x="292" y="232" width="16" height="40" fill="#18354F" opacity="0.7"/>
  <!-- Parent 2 (right) -->
  <circle cx="360" cy="200" r="18" fill="#18354F" opacity="0.7"/>
  <rect x="348" y="218" width="24" height="62" fill="#18354F" opacity="0.7"/>
  <!-- Holding hands lines -->
  <line x1="262" y1="240" x2="292" y2="248" stroke="#18354F" stroke-width="3" opacity="0.7"/>
  <line x1="308" y1="248" x2="348" y2="240" stroke="#18354F" stroke-width="3" opacity="0.7"/>
  <!-- Shield symbol -->
  <path d="M520 100 L550 110 L550 150 C550 170 535 185 520 190 C505 185 490 170 490 150 L490 110Z" fill="#FFB31A" opacity="0.3" stroke="#FFB31A" stroke-width="2" stroke-opacity="0.5"/>
  <!-- Heart inside shield -->
  <path d="M520 130 C515 122 505 122 505 130 C505 138 520 148 520 148 C520 148 535 138 535 130 C535 122 525 122 520 130Z" fill="#FFB31A" opacity="0.5"/>
</svg>